<?xml version="1.0" encoding="UTF-8"?>
<svg width="150px" height="56px" viewBox="0 0 150 56" version="1.1" xmlns="http://www.w3.org/2000/svg" xmlns:xlink="http://www.w3.org/1999/xlink">
    <!-- Generator: Sketch 45.2 (43514) - http://www.bohemiancoding.com/sketch -->
    <title>Artboard</title>
    <desc>Created with Sketch.</desc>
    <defs></defs>
    <g id="Page-1" stroke="none" stroke-width="1" fill="none" fill-rule="evenodd">
        <g id="Artboard" stroke="#4F4747">
            <path d="M62.2980591,55 L144,55 C147,55 149,53 149,50 L149,5.88671875 C149,3 147,1 144,1 L6,1 C3,1 1,3 1,6 L1,50 C1,53 3,55 6,55 L75,55 C89.9100037,55 102,42.9099998 102,28 C102,13.0900002 89.9100037,1 75,1 C60.0900002,1 48,13.0900002 48,28 C48,42.9099998 60.0899963,55 75,55 C89.9100037,55 102,42.9099998 102,28 C102,13.0900002 89.9100037,1 75,1 C59,2 60,17 64,23 C66.6666667,27 70.3333333,31 75,35 L88,18" id="Path-2"></path>
        </g>
    </g>
</svg>